<?xml version="1.0" encoding="UTF-8" standalone="no"?>
<!-- Created with sK1/UniConvertor (http://sk1project.org/) -->

<svg
   xmlns:dc="http://purl.org/dc/elements/1.1/"
   xmlns:cc="http://creativecommons.org/ns#"
   xmlns:rdf="http://www.w3.org/1999/02/22-rdf-syntax-ns#"
   xmlns:svg="http://www.w3.org/2000/svg"
   xmlns="http://www.w3.org/2000/svg"
   xmlns:sodipodi="http://sodipodi.sourceforge.net/DTD/sodipodi-0.dtd"
   xmlns:inkscape="http://www.inkscape.org/namespaces/inkscape"
   width="600pt"
   height="842.72192pt"
   viewBox="0 0 600 842.72191"
   version="1.1"
   id="svg6"
   sodipodi:docname="LoboCor.svg"
   inkscape:version="0.92.5 (2060ec1f9f, 2020-04-08)"
   style="fill-rule:evenodd">
  <metadata
     id="metadata12">
    <rdf:RDF>
      <cc:Work
         rdf:about="">
        <dc:format>image/svg+xml</dc:format>
        <dc:type
           rdf:resource="http://purl.org/dc/dcmitype/StillImage" />
        <dc:title></dc:title>
      </cc:Work>
    </rdf:RDF>
  </metadata>
  <defs
     id="defs10" />
  <sodipodi:namedview
     pagecolor="#ffffff"
     bordercolor="#666666"
     borderopacity="1"
     objecttolerance="10"
     gridtolerance="10"
     guidetolerance="10"
     inkscape:pageopacity="0"
     inkscape:pageshadow="2"
     inkscape:window-width="1852"
     inkscape:window-height="1016"
     id="namedview8"
     showgrid="false"
     inkscape:zoom="1.189304"
     inkscape:cx="387.63875"
     inkscape:cy="569.69273"
     inkscape:window-x="0"
     inkscape:window-y="27"
     inkscape:window-maximized="1"
     inkscape:current-layer="layer2" />
  <g
     inkscape:groupmode="layer"
     id="layer1"
     inkscape:label="FillColor">
    <rect
       style="fill-rule:evenodd;fill:#ffffff;fill-opacity:1;stroke-width:0.75"
       id="rect40"
       width="276.21198"
       height="397.92178"
       x="161.43895"
       y="188.76807" />
  </g>
  <g
     inkscape:groupmode="layer"
     id="layer2"
     inkscape:label="Path">
    <g
       style="fill-rule:evenodd"
       id="g4"
       transform="matrix(1.3129103,0,0,1.4630589,0,-389.01273)">
      <path
         style="fill:#242423;stroke:none"
         d="m 0,553.89 v 288 H 228.5 457 v -288 -288 H 228.5 0 Z m 195.4,-98.3 4.8,5.2 -14.7,0.3 -14.7,0.3 15.7,16 c 8.6,8.8 19.5,19.9 24.2,24.6 l 8.5,8.7 1.4,12.8 c 0.8,7.1 2.2,20.4 3.2,29.7 1,9.2 1.6,17 1.3,17.2 -0.2,0.3 -3.3,0.5 -6.8,0.5 -7.5,0 -7.2,-0.9 -4.2,14.5 1.1,5.9 1.9,11.4 1.7,12.2 -0.3,1.7 -15.7,-16.3 -17.1,-20 -0.5,-1.2 -2.1,-10.2 -3.5,-20 -1.5,-9.8 -3.1,-17.8 -3.6,-17.8 -0.5,0 -1.7,2.5 -2.7,5.6 -1,3.1 -2,5.9 -2.2,6.2 -0.3,0.3 -2.3,-1.5 -4.4,-3.8 -2.1,-2.4 -6.9,-7.8 -10.7,-11.9 -10.6,-11.5 -16.9,-18.3 -19.5,-21.3 l -2.4,-2.6 2.8,-6.3 c 1.5,-3.5 5.9,-12.8 9.7,-20.7 3.7,-7.9 6.8,-14.7 6.8,-15.3 0,-0.5 -1,-0.2 -2.2,0.6 -1.2,0.9 -2.6,1.6 -3,1.6 -0.5,0 -0.8,-11.4 -0.8,-25.2 v -25.3 l 13.8,14.5 c 7.6,8 15.9,16.9 18.6,19.7 z m 107.5,-9.4 c 0.1,12.7 -0.3,23.8 -0.8,24.6 -0.8,1.2 -1.3,1.2 -3.5,-0.3 -1.4,-0.9 -2.6,-1.2 -2.6,-0.8 0,1 9.6,21.5 15.6,33.5 1.9,3.7 3.4,7.3 3.4,8 0,0.7 -4.4,6 -9.8,11.9 -5.3,5.8 -13.3,14.7 -17.7,19.6 -4.4,5 -8.3,9.1 -8.7,9.1 -0.4,0.1 -1.7,-3.2 -2.9,-7.2 -2.7,-8.7 -2.6,-9.1 -6.4,15.9 -2.5,16.5 -3,18.1 -5.9,21.7 -9.2,11.5 -13.9,16.8 -14.3,16.3 -0.6,-0.5 1.2,-12.1 3.2,-20.8 0.7,-3.1 1,-5.9 0.7,-6.2 -0.3,-0.3 -3.4,-0.6 -6.9,-0.6 H 240 v -3.3 c 0.1,-4.7 5.6,-56.6 6.1,-57.1 0.2,-0.3 11.2,-11.4 24.4,-24.8 l 24,-24.3 -14.8,-0.5 -14.7,-0.5 15.4,-16 c 8.4,-8.8 16.5,-17.5 18,-19.3 1.6,-1.7 3.2,-3 3.6,-2.7 0.5,0.3 0.9,11 0.9,23.8 z M 202,612.59 c 7.1,3.7 12.7,6.9 12.5,7.1 -0.3,0.3 -12.3,-4.4 -19.4,-7.5 -1.2,-0.5 -1.3,0.3 -0.8,4.8 0.4,3 0.9,8.8 1.1,12.9 l 0.5,7.5 -1.8,-7 c -1,-3.9 -2.8,-10.4 -4,-14.5 -2.2,-7.7 -2.5,-10 -1.5,-10 0.3,0 6.3,3 13.4,6.7 z m 73.6,-5 c -0.3,1 -2.4,9 -4.7,17.8 -2.2,8.8 -4.2,16.2 -4.4,16.3 -0.6,0.6 -7.5,-2.2 -7.5,-3 0,-0.4 1.7,-0.8 3.8,-0.8 h 3.9 l 1.7,-12.6 c 0.9,-7 1.5,-12.8 1.4,-13 -0.2,-0.2 -4.8,1.5 -10.2,3.7 -5.5,2.2 -10.1,3.7 -10.3,3.5 -0.5,-0.5 23.7,-13.3 25.5,-13.5 0.8,-0.1 1.1,0.6 0.8,1.6 z m -92.5,4.2 c 0.8,0.8 7.9,28.3 7.9,30.2 -0.1,0.8 -2.5,-4.9 -5.4,-12.6 -3,-7.7 -5.9,-15.3 -6.5,-16.8 -1,-2.7 -1,-2.8 1.1,-2.2 1.3,0.4 2.6,1 2.9,1.4 z m 101.9,-0.8 c 0,0.6 -0.9,3.1 -1.9,5.7 -2.1,5 -8.4,21.4 -9.5,24.6 -0.4,1 -0.8,1.7 -1.1,1.5 -0.2,-0.3 0.5,-3.8 1.6,-7.9 1.1,-4.1 2.8,-10.9 3.9,-14.9 1,-4.3 2.6,-8.1 3.6,-8.8 2.2,-1.6 3.4,-1.7 3.4,-0.2 z m -43,8.8 c 0,1.6 -0.3,4.4 -0.7,6.2 l -0.8,3.4 -0.5,-4.5 -0.5,-4.5 h -7.5 -7.5 l 0.2,4.5 c 0.3,5.6 -1.2,3.4 -2.1,-3.3 l -0.7,-4.7 h 10 10.1 z m -37,18.6 c 0,0.2 -1.4,1.2 -3.1,2 -3.4,1.8 -5.9,1.4 -5.9,-1 0,-1.1 1.1,-1.5 4.5,-1.5 2.5,0 4.5,0.2 4.5,0.5 z"
         id="path2"
         inkscape:connector-curvature="0" />
    </g>
  </g>
</svg>
