<?xml version="1.0" encoding="UTF-8" standalone="no"?>
<!-- Created with Inkscape (http://www.inkscape.org/) -->

<svg
   xmlns:dc="http://purl.org/dc/elements/1.1/"
   xmlns:cc="http://creativecommons.org/ns#"
   xmlns:rdf="http://www.w3.org/1999/02/22-rdf-syntax-ns#"
   xmlns:svg="http://www.w3.org/2000/svg"
   xmlns="http://www.w3.org/2000/svg"
   xmlns:sodipodi="http://sodipodi.sourceforge.net/DTD/sodipodi-0.dtd"
   xmlns:inkscape="http://www.inkscape.org/namespaces/inkscape"
   width="43.65625mm"
   height="58.710999mm"
   viewBox="0 0 43.65625 58.710999"
   version="1.1"
   id="svg4083"
   inkscape:version="0.92.5 (2060ec1f9f, 2020-04-08)"
   sodipodi:docname="loboicon.svg">
  <defs
     id="defs4077" />
  <sodipodi:namedview
     id="base"
     pagecolor="#ffffff"
     bordercolor="#666666"
     borderopacity="1.0"
     inkscape:pageopacity="0.0"
     inkscape:pageshadow="2"
     inkscape:zoom="3.959798"
     inkscape:cx="119.65538"
     inkscape:cy="144.5711"
     inkscape:document-units="mm"
     inkscape:current-layer="layer1"
     showgrid="false"
     inkscape:window-width="1852"
     inkscape:window-height="1016"
     inkscape:window-x="0"
     inkscape:window-y="27"
     inkscape:window-maximized="1" />
  <metadata
     id="metadata4080">
    <rdf:RDF>
      <cc:Work
         rdf:about="">
        <dc:format>image/svg+xml</dc:format>
        <dc:type
           rdf:resource="http://purl.org/dc/dcmitype/StillImage" />
        <dc:title></dc:title>
      </cc:Work>
    </rdf:RDF>
  </metadata>
  <g
     inkscape:label="Camada 1"
     inkscape:groupmode="layer"
     id="layer1"
     transform="translate(-36.304608,-108.38988)">
    <path
       style="fill:#000000;stroke-width:0.26458332"
       d="m 46.089748,164.53275 c -0.4934,-1.33785 -1.23103,-3.25496 -1.6392,-4.26024 -0.40816,-1.00528 -0.68207,-1.88782 -0.60868,-1.96121 0.0734,-0.0734 0.4064,-0.009 0.74004,0.14297 l 0.60661,0.27639 0.76172,3.00774 c 0.41895,1.65425 0.91401,3.45112 1.10014,3.99305 l 0.33841,0.98532 -0.20098,0.12422 c -0.11054,0.0683 -0.60466,-0.97039 -1.09806,-2.30824 z m 22.49403,2.30294 c 0,-0.14587 0.40119,-1.68773 0.89153,-3.42635 0.49034,-1.73862 0.9734,-3.53597 1.07345,-3.99412 l 0.18191,-0.83299 0.56865,-0.1487 c 0.31275,-0.0818 0.61969,-0.0977 0.68209,-0.0353 0.14059,0.14059 -2.84047,8.10456 -3.16347,8.4513 l -0.23416,0.25135 z m -19.97375,-0.43592 c -0.15631,-0.45588 -1.10835,-4.10921 -1.76271,-6.76412 -0.29823,-1.21003 -0.47794,-2.26436 -0.39935,-2.34295 0.13856,-0.13856 6.84551,3.14992 7.52397,3.68906 0.48659,0.38667 0.1996,0.54526 -0.3775,0.20861 -0.73959,-0.43143 -5.5037,-2.35894 -5.60029,-2.26581 -0.0874,0.0843 0.43202,5.11285 0.63397,6.13714 l 0.11438,0.58016 1.12324,0.0813 1.12324,0.0813 -0.84675,0.46302 c -1.00284,0.54837 -1.37843,0.5808 -1.5322,0.13229 z m 17.06333,-0.13498 -0.92604,-0.445 1.21982,-0.0868 1.21981,-0.0868 0.32459,-2.83129 c 0.17852,-1.5572 0.39156,-3.11875 0.47343,-3.4701 l 0.14885,-0.63881 -0.37033,0.15671 c -0.20369,0.0862 -1.32284,0.5674 -2.487,1.06935 -1.16417,0.50194 -2.59292,1.11626 -3.175,1.36514 l -1.05834,0.45251 0.39688,-0.38673 c 0.55144,-0.53735 7.89614,-4.28703 8.0655,-4.11767 0.0758,0.0758 -0.39828,2.19996 -1.05345,4.72041 -0.65517,2.52044 -1.19122,4.62361 -1.19122,4.67371 0,0.21112 -0.72417,0.0402 -1.5875,-0.37464 z m -9.98802,-3.34873 c -0.1819,-0.86101 -0.33073,-1.84328 -0.33073,-2.18281 v -0.61733 h 2.65971 2.6597 l -0.0573,1.5875 c -0.0659,1.82497 -0.42986,2.1311 -0.55055,0.46302 l -0.0814,-1.12448 -1.90588,-0.0775 -1.90588,-0.0775 -0.0785,1.79728 -0.0785,1.79728 z m -2.32755,-7.68173 c -0.13868,-0.19169 -1.16554,-1.47895 -2.28193,-2.86059 l -2.02979,-2.51206 -0.69311,-4.72861 c -0.38121,-2.60073 -0.79177,-4.96673 -0.91237,-5.25777 l -0.21925,-0.52917 -0.43128,1.43708 c -0.23721,0.7904 -0.43128,1.59407 -0.43128,1.78594 0,0.66399 -0.59943,0.3435 -1.68644,-0.90169 -0.60043,-0.68779 -2.7288,-3.03148 -4.72971,-5.20818 l -3.63802,-3.95765 v -0.42744 c 0,-0.23509 0.10243,-0.54054 0.22762,-0.67879 0.1252,-0.13824 0.85506,-1.62057 1.62192,-3.29406 0.76686,-1.67349 1.79552,-3.85944 2.28592,-4.85767 1.09505,-2.22906 1.10885,-2.4768 0.0979,-1.75691 l -0.79375,0.5652 0.005,-6.83104 0.005,-6.83104 1.64894,1.72084 c 0.90691,0.94647 3.13335,3.26818 4.94763,5.15938 l 3.29869,3.43853 -3.86089,0.13229 -3.86088,0.13229 6.32185,6.45602 6.32185,6.45602 0.11759,0.55544 c 0.10132,0.4786 0.60354,5.03249 1.43267,12.99086 0.12128,1.16416 0.17002,2.20596 0.1083,2.3151 -0.0617,0.10914 -0.87911,0.19844 -1.8164,0.19844 h -1.70417 v 0.38344 c 0,0.33009 0.87174,5.21721 1.17042,6.5616 0.13072,0.5884 -0.19106,0.80081 -0.52141,0.3442 z m 9.06833,-0.34393 c 0.0654,-0.40018 0.34658,-1.95404 0.62477,-3.45301 0.27819,-1.49898 0.50581,-2.89796 0.50581,-3.10886 v -0.38344 h -1.70418 c -0.9373,0 -1.75241,-0.0893 -1.81137,-0.19844 -0.0589,-0.10914 0.26604,-3.67534 0.72221,-7.92488 l 0.82939,-7.72645 3.15923,-3.25376 c 1.73757,-1.78957 4.62961,-4.74204 6.42675,-6.56105 l 3.26754,-3.3073 -3.89082,-0.13229 -3.89081,-0.13229 3.41569,-3.57187 c 1.87864,-1.96453 4.05412,-4.25649 4.83442,-5.09323 0.78029,-0.83675 1.5205,-1.52136 1.64491,-1.52136 h 0.2262 v 6.74688 c 0,3.71078 -0.0709,6.74687 -0.15759,6.74687 -0.0867,0 -0.5034,-0.24623 -0.92604,-0.54718 -0.42265,-0.30095 -0.76845,-0.46252 -0.76845,-0.35904 0,0.10347 1.13109,2.56612 2.51354,5.47254 1.38245,2.90643 2.51354,5.50286 2.51354,5.76985 0,0.267 -0.14989,0.58067 -0.33309,0.69704 -0.18319,0.11637 -1.632,1.64033 -3.21956,3.38658 -1.58756,1.74625 -3.5985,3.92728 -4.46876,4.84673 l -1.5823,1.67173 -0.22124,-0.34881 c -0.12168,-0.19185 -0.41824,-1.00366 -0.65903,-1.80402 l -0.43779,-1.45521 -0.18607,0.66146 c -0.10233,0.3638 -0.52271,2.77989 -0.93416,5.36909 l -0.7481,4.70763 -0.617,0.71633 c -0.33934,0.39397 -1.36086,1.63336 -2.27004,2.75419 -0.90919,1.12083 -1.72585,2.04357 -1.81481,2.05052 -0.089,0.007 -0.10822,-0.31477 -0.0428,-0.71495 z"
       id="path4170"
       inkscape:connector-curvature="0" />
  </g>
</svg>
